<?xml version="1.0" encoding="UTF-8" standalone="no"?><svg width="1024" height="1024" viewBox="0 0 1024 1024" fill="none" xmlns="http://www.w3.org/2000/svg">
<g clip-path="url(#clip0_78_2)">
<rect width="1024" height="1024" rx="160" fill="#FFF3E2"/>
<path d="M256.704 167.131C220.746 217.423 172.059 245.729 110.643 252.048C49.2266 258.368 4.21415 233.222 -24.3943 176.61C-53.0028 119.999 -51.8217 65.4937 -20.8511 13.0952C10.1196 -39.3033 54.2134 -62.7378 111.43 -57.2083C168.647 -51.6788 216.153 -25.4795 253.948 21.3895C291.743 68.2585 292.661 116.839 256.704 167.131Z" fill="#FF9B9B"/>
<path d="M1138.46 710.558C1102.18 775.242 1053.04 811.648 991.067 819.776C929.088 827.904 883.664 795.561 854.794 722.749C825.924 649.937 827.116 579.834 858.37 512.441C889.624 445.047 934.121 414.906 991.861 422.018C1049.6 429.13 1097.54 462.827 1135.68 523.109C1173.82 583.39 1174.75 645.873 1138.46 710.558Z" fill="#FFC681"/>
<path d="M381.417 1078.27C340.965 1126.14 286.192 1153.08 217.098 1159.09C148.005 1165.11 97.3659 1141.18 65.1814 1087.29C32.9968 1033.41 34.3256 981.537 69.1675 931.666C104.01 881.795 153.615 859.491 217.984 864.754C282.353 870.016 335.797 894.952 378.316 939.56C420.835 984.169 421.869 1030.41 381.417 1078.27Z" fill="#B2A4FF"/>
<path d="M864.36 931.36C901.054 990.704 910.683 1058.05 893.246 1133.39C875.809 1208.73 833.054 1254.22 764.98 1269.84C696.906 1285.47 642.495 1266.24 601.748 1212.15C561.001 1158.07 554.496 1097.8 582.234 1031.34C609.971 964.885 654.753 916.77 716.579 887C778.406 857.23 827.666 872.017 864.36 931.36Z" fill="#C0DEFF"/>
<path d="M979.45 92.2513C934.942 154.186 874.677 189.045 798.656 196.828C722.634 204.61 666.918 173.643 631.506 103.925C596.094 34.2073 597.556 -32.9161 635.892 -97.4454C674.227 -161.975 728.807 -190.835 799.63 -184.025C870.454 -177.215 929.257 -144.951 976.039 -87.231C1022.82 -29.5113 1023.96 30.3161 979.45 92.2513Z" fill="#A6D0DD"/>
<path d="M95.8786 719.137C68.0521 767.185 16.1756 808.88 -59.751 844.221C-135.677 879.562 -185.964 855.538 -210.61 772.149C-235.257 688.76 -223.132 626.615 -174.237 585.715C-125.342 544.815 -66.5088 506.098 2.26234 469.566C71.0335 433.034 110.786 453.484 121.519 530.916C132.252 608.349 123.705 671.089 95.8786 719.137Z" fill="#98DDCA"/>
<path d="M244.433 239.545H323.268L508.638 692.315H515.03L700.399 239.545H779.234V785H717.444V370.582H712.118L541.663 785H482.004L311.549 370.582H306.223V785H244.433V239.545Z" fill="#E74646"/>
</g>
<defs>
<clipPath id="clip0_78_2">
<rect width="1024" height="1024" rx="160" fill="white"/>
</clipPath>
</defs>
</svg>
